<svg width="512" height="512" viewBox="0 0 512 512" fill="none" xmlns="http://www.w3.org/2000/svg">
<path fill-rule="evenodd" clip-rule="evenodd" d="M280.901 58.5C269.739 39.1667 241.834 39.1667 230.672 58.5L18.9285 425.25C7.76642 444.583 21.719 468.75 44.0433 468.75H467.53C489.854 468.75 503.807 444.583 492.644 425.25L280.901 58.5ZM221.621 210.271V348.659C177.4 331.203 157.967 341.953 164.107 359.819C170.247 377.685 227.203 424 227.203 424H331.064C346.477 383.439 355.633 352.013 346.14 331.927C336.647 311.842 295.327 290.634 264.617 290.634V210.271C264.617 189.629 221.621 190.192 221.621 210.271ZM183.648 217.306C183.648 236.222 192.357 253.104 205.984 264.16V217.306C205.984 196.336 222.984 179.336 243.955 179.336C264.925 179.336 281.925 196.336 281.925 217.306V264.16C295.552 253.104 304.261 236.222 304.261 217.306C304.261 184 277.261 157 243.955 157C210.648 157 183.648 184 183.648 217.306Z"/>
</svg>
